<svg width="235" height="204" viewBox="0 0 235 204" fill="none" xmlns="http://www.w3.org/2000/svg">
<path d="M213.911 186.231C209.406 191.563 204.245 196.168 198.578 199.909C198.448 199.997 198.316 200.08 198.183 200.166L189.009 191.188C189.106 191.089 189.212 190.978 189.327 190.856C196.163 183.679 230.097 133.502 232.359 121.283C232.202 122.301 234.399 162.222 213.911 186.231Z" fill="#F0F0F0"/>
<path d="M200.348 201.641C200.175 201.687 199.998 201.729 199.821 201.768L192.938 195.033C193.073 194.981 193.23 194.92 193.41 194.851C196.363 193.695 205.158 190.205 213.911 186.23C223.316 181.957 232.675 177.128 234.688 174.036C234.256 174.754 220.955 196.546 200.348 201.641Z" fill="#F0F0F0"/>
<path d="M213.784 53.427H212.804V23.7396C212.804 21.4831 212.402 19.2488 211.621 17.1642C210.84 15.0795 209.695 13.1854 208.252 11.5898C206.809 9.9943 205.096 8.72866 203.211 7.86517C201.325 7.00168 199.305 6.55724 197.264 6.55724H140.378C138.337 6.55724 136.316 7.00167 134.431 7.86515C132.545 8.72864 130.832 9.99428 129.389 11.5898C127.946 13.1853 126.802 15.0795 126.021 17.1641C125.24 19.2488 124.838 21.4831 124.838 23.7395V186.607C124.838 188.864 125.24 191.098 126.021 193.183C126.802 195.267 127.946 197.162 129.389 198.757C130.832 200.353 132.545 201.618 134.431 202.482C136.316 203.345 138.337 203.79 140.378 203.79H197.264C199.305 203.79 201.325 203.345 203.211 202.482C205.096 201.618 206.809 200.353 208.252 198.757C209.695 197.162 210.84 195.267 211.621 193.183C212.402 191.098 212.804 188.864 212.804 186.607V74.5591H213.784V53.427Z" fill="#3F3D56"/>
<path d="M209.496 23.8576V186.488C209.496 188.173 209.196 189.842 208.612 191.399C208.029 192.956 207.174 194.37 206.096 195.561C205.018 196.753 203.739 197.698 202.33 198.342C200.922 198.986 199.413 199.318 197.889 199.317H140.729C139.205 199.317 137.697 198.986 136.289 198.341C134.881 197.696 133.602 196.751 132.524 195.56C131.447 194.369 130.592 192.954 130.009 191.398C129.426 189.841 129.126 188.173 129.126 186.488V23.8576C129.126 22.1728 129.426 20.5046 130.009 18.948C130.592 17.3915 131.447 15.9772 132.524 14.7859C133.602 13.5946 134.881 12.6496 136.289 12.005C137.697 11.3603 139.205 11.0285 140.729 11.0287H147.666C147.325 11.9544 147.196 12.9584 147.289 13.9524C147.381 14.9465 147.694 15.9001 148.198 16.7294C148.702 17.5587 149.383 18.2383 150.181 18.7084C150.978 19.1785 151.868 19.4247 152.772 19.4254H185.36C186.265 19.4263 187.155 19.1811 187.954 18.7115C188.752 18.2418 189.434 17.5621 189.938 16.7323C190.443 15.9026 190.755 14.9482 190.847 13.9535C190.939 12.9588 190.809 11.9543 190.467 11.0287H197.889C199.413 11.0281 200.922 11.3594 202.33 12.0039C203.739 12.6483 205.018 13.5932 206.096 14.7845C207.174 15.9759 208.029 17.3903 208.612 18.9471C209.196 20.5039 209.496 22.1725 209.496 23.8576V23.8576Z" fill="white"/>
<path d="M191.716 108.369H141.474C140.594 108.368 139.75 107.981 139.128 107.293C138.506 106.605 138.156 105.672 138.155 104.699V102.873C138.156 101.9 138.506 100.967 139.128 100.279C139.75 99.5907 140.594 99.2037 141.474 99.2026H191.716C192.596 99.2037 193.439 99.5907 194.062 100.279C194.684 100.967 195.034 101.9 195.035 102.873V104.699C195.034 105.672 194.684 106.605 194.062 107.293C193.439 107.981 192.596 108.368 191.716 108.369Z" fill="#F0F0F0"/>
<path d="M191.716 124.116H141.474C140.594 124.115 139.75 123.728 139.128 123.04C138.506 122.352 138.156 121.419 138.155 120.446V118.619C138.156 117.646 138.506 116.713 139.128 116.025C139.75 115.337 140.594 114.95 141.474 114.949H191.716C192.596 114.95 193.439 115.337 194.062 116.025C194.684 116.713 195.034 117.646 195.035 118.619V120.446C195.034 121.419 194.684 122.352 194.062 123.04C193.439 123.728 192.596 124.115 191.716 124.116V124.116Z" fill="#F0F0F0"/>
<path d="M194.229 104.847H143.987C143.063 104.846 142.177 104.44 141.524 103.718C140.871 102.995 140.503 102.016 140.502 100.994V99.1673C140.503 98.1457 140.871 97.1662 141.524 96.4438C142.177 95.7214 143.063 95.315 143.987 95.3139H194.229C195.153 95.315 196.039 95.7214 196.692 96.4438C197.345 97.1662 197.713 98.1457 197.714 99.1673V100.994C197.713 102.016 197.345 102.995 196.692 103.718C196.039 104.44 195.153 104.846 194.229 104.847V104.847ZM143.987 96.0479C143.239 96.0488 142.522 96.3777 141.993 96.9625C141.464 97.5474 141.167 98.3403 141.166 99.1673V100.994C141.167 101.821 141.464 102.614 141.993 103.199C142.522 103.784 143.239 104.113 143.987 104.113H194.229C194.977 104.113 195.694 103.784 196.223 103.199C196.752 102.614 197.049 101.821 197.05 100.994V99.1673C197.049 98.3403 196.752 97.5474 196.223 96.9625C195.694 96.3777 194.977 96.0488 194.229 96.0479H143.987Z" fill="#3F3D56"/>
<path d="M194.229 120.594H143.987C143.063 120.593 142.177 120.187 141.524 119.464C140.871 118.742 140.503 117.762 140.502 116.741V114.914C140.503 113.892 140.871 112.913 141.524 112.19C142.177 111.468 143.063 111.062 143.987 111.061H194.229C195.153 111.062 196.039 111.468 196.692 112.19C197.345 112.913 197.713 113.892 197.714 114.914V116.741C197.713 117.762 197.345 118.742 196.692 119.464C196.039 120.187 195.153 120.593 194.229 120.594V120.594ZM143.987 111.795C143.239 111.795 142.522 112.124 141.993 112.709C141.464 113.294 141.167 114.087 141.166 114.914V116.741C141.167 117.568 141.464 118.361 141.993 118.945C142.522 119.53 143.239 119.859 143.987 119.86H194.229C194.977 119.859 195.694 119.53 196.223 118.945C196.752 118.361 197.049 117.568 197.05 116.741V114.914C197.049 114.087 196.752 113.294 196.223 112.709C195.694 112.124 194.977 111.795 194.229 111.795H143.987Z" fill="#3F3D56"/>
<path d="M209.496 23.8576V59.232C204.412 60.7108 199.09 60.8805 193.937 59.728C188.785 58.5754 183.941 56.1315 179.777 52.5841C175.613 49.0367 172.24 44.4805 169.919 39.2659C167.597 34.0513 166.388 28.3174 166.385 22.5052C166.385 21.4678 166.423 20.4412 166.498 19.4254H185.36C186.265 19.4263 187.155 19.1811 187.954 18.7115C188.752 18.2418 189.434 17.5621 189.938 16.7323C190.443 15.9026 190.755 14.9482 190.847 13.9535C190.939 12.9588 190.809 11.9543 190.467 11.0287H197.889C199.413 11.0281 200.922 11.3594 202.331 12.0039C203.739 12.6483 205.018 13.5932 206.096 14.7845C207.174 15.9759 208.029 17.3903 208.612 18.9471C209.196 20.5039 209.496 22.1725 209.496 23.8576V23.8576Z" fill="#F0F0F0"/>
<path d="M158.008 197.108C158.008 197.854 157.983 198.59 157.928 199.317H140.729C139.205 199.317 137.697 198.986 136.289 198.341C134.881 197.696 133.602 196.751 132.524 195.56C131.447 194.369 130.592 192.954 130.009 191.398C129.426 189.841 129.126 188.173 129.126 186.488V169.093C132.731 168.574 136.395 168.912 139.873 170.082C143.351 171.252 146.564 173.228 149.297 175.879C152.03 178.53 154.22 181.795 155.722 185.455C157.224 189.116 158.003 193.088 158.008 197.108H158.008Z" fill="#FED5D4"/>
<path d="M19.2916 166.585C19.7749 166.82 20.3228 166.834 20.815 166.623C21.3073 166.412 21.7037 165.994 21.9175 165.46L37.4113 126.634C37.7659 125.746 37.8743 124.761 37.7227 123.804C37.5711 122.848 37.1663 121.962 36.5595 121.26C35.9528 120.558 35.1713 120.07 34.314 119.859C33.4566 119.648 32.5619 119.723 31.743 120.074H31.7429C30.7968 120.473 30.005 121.223 29.5024 122.195C29.4225 122.349 29.35 122.507 29.2852 122.67L13.7914 161.495C13.6858 161.76 13.6283 162.045 13.6223 162.334C13.6164 162.623 13.6619 162.911 13.7565 163.18C13.851 163.45 13.9927 163.696 14.1734 163.905C14.354 164.115 14.5702 164.282 14.8095 164.399L19.2916 166.585Z" fill="#FED5D4"/>
<path d="M36.7753 142.574L21.45 138.808L25.2431 127.713C25.8893 125.001 27.3932 122.636 29.4819 121.045C31.5706 119.454 34.1058 118.743 36.6277 119.042L36.7753 119.06L36.7753 142.574Z" fill="#2F2E41"/>
<path d="M67.7302 167.141C67.2794 167.14 66.8385 166.995 66.4608 166.723C66.0831 166.451 65.7848 166.063 65.6019 165.608L50.1081 126.782C49.6154 125.547 49.5696 124.15 49.9801 122.878C50.3907 121.607 51.2264 120.557 52.3153 119.946C53.4042 119.335 54.6635 119.209 55.8341 119.593C57.0047 119.978 57.9976 120.843 58.6084 122.012V122.012C58.6943 122.177 58.7721 122.347 58.8417 122.522L74.3354 161.347C74.5842 161.971 74.5988 162.678 74.376 163.313C74.1533 163.948 73.7114 164.46 73.1476 164.735L68.5135 166.995L68.5112 166.99C68.2607 167.089 67.9964 167.141 67.7302 167.141V167.141Z" fill="#FED5D4"/>
<path d="M46.2982 153.808C45.7702 153.809 45.2639 154.041 44.8906 154.454C44.5172 154.867 44.3072 155.426 44.3066 156.01V201.156C44.3072 201.739 44.5172 202.299 44.8906 202.712C45.2639 203.125 45.7702 203.357 46.2982 203.358H51.1972C51.7252 203.357 52.2314 203.125 52.6047 202.712C52.9781 202.299 53.1881 201.739 53.1887 201.156V156.01C53.1881 155.426 52.9781 154.867 52.6047 154.454C52.2314 154.041 51.7252 153.809 51.1972 153.808H46.2982Z" fill="#FED5D4"/>
<path d="M36.6086 153.808C36.0806 153.809 35.5744 154.041 35.201 154.454C34.8277 154.867 34.6177 155.426 34.6171 156.01V201.156C34.6177 201.739 34.8277 202.299 35.201 202.712C35.5744 203.125 36.0806 203.357 36.6086 203.358H41.5077C42.0357 203.357 42.5419 203.125 42.9152 202.712C43.2886 202.299 43.4986 201.739 43.4992 201.156V156.01C43.4986 155.426 43.2886 154.867 42.9152 154.454C42.5419 154.041 42.0357 153.809 41.5077 153.808H36.6086Z" fill="#FED5D4"/>
<path d="M43.7566 106.51C53.1056 106.51 60.6845 98.1307 60.6845 87.7938C60.6845 77.4568 53.1056 69.0771 43.7566 69.0771C34.4075 69.0771 26.8286 77.4568 26.8286 87.7938C26.8286 98.1307 34.4075 106.51 43.7566 106.51Z" fill="#FED5D4"/>
<path d="M49.3898 95.6507C50.4871 95.617 51.8527 95.5749 52.9048 94.7252C53.2181 94.4618 53.4755 94.1258 53.659 93.7408C53.8425 93.3558 53.9476 92.9312 53.967 92.4965C53.986 92.1876 53.9402 91.8781 53.8331 91.592C53.726 91.3059 53.5605 91.0512 53.3495 90.8476C52.8 90.3341 51.9976 90.2137 51.1329 90.4947L52.0288 83.2555L51.3711 83.1559L50.3179 91.6665L50.8671 91.3878C51.5038 91.0649 52.3779 90.9006 52.921 91.4081C53.0544 91.5408 53.1583 91.7057 53.2246 91.89C53.291 92.0743 53.318 92.273 53.3036 92.4707C53.2875 92.7942 53.2086 93.1101 53.0722 93.3968C52.9358 93.6835 52.7452 93.9344 52.5132 94.1324C51.6945 94.7936 50.606 94.8789 49.3713 94.9171L49.3898 95.6507Z" fill="#2F2E41"/>
<path d="M58.8567 83.8799H55.2814V84.6138H58.8567V83.8799Z" fill="#2F2E41"/>
<path d="M47.5714 83.8799H43.9961V84.6138H47.5714V83.8799Z" fill="#2F2E41"/>
<path d="M60.5298 167.369L54.437 118.192C54.3717 117.664 54.1358 117.181 53.773 116.831C53.4103 116.481 52.9452 116.288 52.4638 116.288H47.8649C47.8841 116.167 47.894 116.044 47.8947 115.921V114.086C47.8947 113.502 47.6849 112.942 47.3114 112.529C46.9379 112.117 46.4314 111.885 45.9032 111.885H41.9202C41.392 111.885 40.8854 112.117 40.5119 112.529C40.1385 112.942 39.9286 113.502 39.9286 114.086V115.921C39.9293 116.044 39.9393 116.167 39.9585 116.288H35.3595C34.8782 116.288 34.4131 116.481 34.0503 116.831C33.6876 117.181 33.4517 117.664 33.3863 118.192L27.2936 167.369C27.255 167.68 27.2772 167.997 27.3586 168.298C27.4401 168.6 27.579 168.878 27.7659 169.115C27.9528 169.352 28.1835 169.542 28.4424 169.672C28.7012 169.802 28.9823 169.87 29.2666 169.87H58.5567C58.8411 169.87 59.1221 169.802 59.381 169.672C59.6398 169.542 59.8705 169.352 60.0574 169.115C60.2444 168.878 60.3832 168.6 60.4647 168.299C60.5462 167.997 60.5684 167.68 60.5298 167.369Z" fill="#2F2E41"/>
<path d="M51.0479 142.574V119.06L51.1955 119.042C53.7205 118.743 56.2585 119.456 58.3486 121.051C60.4386 122.646 61.942 125.016 62.5855 127.732L66.3732 138.808L51.0479 142.574Z" fill="#2F2E41"/>
<path d="M42.9042 107.095L31.1955 102.07C29.2809 101.248 27.3556 100.451 25.4511 99.6014C24.6353 99.2871 23.8838 98.7974 23.24 98.1605C22.6795 97.5044 22.2974 96.687 22.1377 95.8019C21.7316 93.904 21.805 91.8291 21.8339 89.8923C21.8564 87.7736 22.0141 85.6593 22.3059 83.5651C22.8172 79.6298 24.0179 75.8426 25.8409 72.4157C29.1245 66.4588 34.7819 61.9771 41.2895 62.3347C44.3022 62.5003 47.3323 63.6956 49.5707 65.9731C49.8042 66.2816 50.0662 66.5624 50.3524 66.8108C50.5513 66.8933 50.7678 66.9093 50.9749 66.857C51.2481 66.8375 51.5215 66.8227 51.7951 66.8125C52.7444 66.7682 53.6955 66.8123 54.6382 66.9443C56.356 67.1495 57.9842 67.8971 59.3283 69.0976C60.4469 70.1616 61.3571 71.6635 61.4508 73.3327C61.496 74.0989 61.3814 74.8664 61.1159 75.5759C60.8503 76.2854 60.4409 76.918 59.9192 77.4249C58.5223 78.7266 56.5293 78.2691 54.8536 78.1709L48.7152 77.8113L45.605 77.6291C44.9646 77.5916 44.9665 78.6927 45.605 78.7301L53.8715 79.2144C55.1999 79.2922 56.569 79.4829 57.8985 79.3948C58.92 79.3436 59.8955 78.9098 60.6644 78.1645C61.3667 77.4512 61.8899 76.5488 62.1829 75.5454C62.4759 74.5419 62.5287 73.4717 62.3362 72.439C61.91 70.1865 60.3939 68.3232 58.6165 67.2148C56.1981 65.7065 53.3097 65.562 50.6037 65.785L50.9557 65.9462C47.8947 62.3136 43.2058 60.7799 38.804 61.3166C34.1564 61.8833 30.0227 64.7502 27.0527 68.6703C23.7413 73.041 21.9368 78.4909 21.2352 84.095C20.8702 87.1207 20.75 90.1764 20.8761 93.2257C20.8709 94.5705 21.079 95.9059 21.4909 97.1713C21.9609 98.4028 22.8106 99.4101 23.8891 100.014C25.1255 100.674 26.3965 101.251 27.6955 101.743L32.0092 103.594L40.4826 107.231L42.6394 108.156C43.2372 108.413 43.4961 107.349 42.9042 107.095Z" fill="#2F2E41"/>
<path d="M24.4941 69.6802C23.4766 69.6802 22.4819 69.3466 21.6359 68.7215C20.7898 68.0965 20.1304 67.2081 19.741 66.1687C19.3516 65.1292 19.2497 63.9855 19.4482 62.882C19.6467 61.7786 20.1367 60.765 20.8562 59.9695C21.5757 59.174 22.4925 58.6322 23.4904 58.4127C24.4884 58.1932 25.5229 58.3059 26.463 58.7364C27.403 59.1669 28.2065 59.896 28.7719 60.8315C29.3372 61.7669 29.6389 62.8667 29.6389 63.9918C29.6374 65.4999 29.0948 66.9458 28.1303 68.0122C27.1658 69.0787 25.8581 69.6785 24.4941 69.6802ZM24.4941 59.4044C23.6735 59.4044 22.8714 59.6734 22.1891 60.1775C21.5068 60.6816 20.975 61.398 20.661 62.2363C20.3469 63.0745 20.2648 63.9969 20.4248 64.8868C20.5849 65.7766 20.9801 66.594 21.5603 67.2356C22.1406 67.8772 22.8799 68.3141 23.6847 68.4911C24.4895 68.6681 25.3238 68.5772 26.0819 68.23C26.84 67.8828 27.488 67.2948 27.9439 66.5404C28.3998 65.786 28.6432 64.8991 28.6432 63.9918C28.6419 62.7756 28.2044 61.6095 27.4266 60.7495C26.6487 59.8895 25.5941 59.4057 24.4941 59.4044V59.4044Z" fill="#2F2E41"/>
<path d="M110.496 104.932L99.3607 95.5151L90.8439 107.827L101.979 117.244L110.496 104.932Z" fill="#F0F0F0"/>
<path d="M47.5627 20.87C49.3221 20.8685 51.0574 21.3225 52.6296 22.1957C54.2018 23.0689 55.5673 24.3371 56.6166 25.8986L63.1189 16.4985L43.6089 0L28.6873 21.5715L37.096 28.6824C37.9374 26.3749 39.3836 24.3982 41.2486 23.0061C43.1136 21.614 45.3124 20.8702 47.5627 20.87V20.87Z" fill="#F0F0F0"/>
<path d="M234.668 204H0.331921C0.24389 204 0.159464 203.961 0.0972171 203.893C0.0349699 203.824 0 203.73 0 203.633C0 203.536 0.0349699 203.442 0.0972171 203.374C0.159464 203.305 0.24389 203.266 0.331921 203.266H234.668C234.756 203.266 234.841 203.305 234.903 203.374C234.965 203.442 235 203.536 235 203.633C235 203.73 234.965 203.824 234.903 203.893C234.841 203.961 234.756 204 234.668 204Z" fill="#3F3D56"/>
<path d="M177.474 143.104H153.621C152.741 143.103 151.898 142.716 151.276 142.028C150.653 141.34 150.303 140.407 150.302 139.435V137.608C150.303 136.635 150.653 135.702 151.276 135.014C151.898 134.326 152.741 133.939 153.621 133.938H177.474C178.354 133.939 179.198 134.326 179.82 135.014C180.442 135.702 180.792 136.635 180.793 137.608V139.435C180.792 140.407 180.442 141.34 179.82 142.028C179.198 142.716 178.354 143.103 177.474 143.104V143.104Z" fill="#FED5D4"/>
<path d="M179.987 139.583H156.135C155.211 139.582 154.325 139.175 153.671 138.453C153.018 137.731 152.65 136.751 152.649 135.729V133.903C152.65 132.881 153.018 131.902 153.671 131.179C154.325 130.457 155.211 130.05 156.135 130.049H179.987C180.911 130.05 181.797 130.457 182.45 131.179C183.104 131.902 183.471 132.881 183.472 133.903V135.729C183.471 136.751 183.104 137.731 182.45 138.453C181.797 139.175 180.911 139.582 179.987 139.583V139.583ZM156.135 130.783C155.387 130.784 154.669 131.113 154.141 131.698C153.612 132.283 153.314 133.076 153.313 133.903V135.729C153.314 136.556 153.612 137.349 154.141 137.934C154.669 138.519 155.387 138.848 156.135 138.849H179.987C180.735 138.848 181.452 138.519 181.981 137.934C182.51 137.349 182.808 136.556 182.809 135.729V133.903C182.808 133.076 182.51 132.283 181.981 131.698C181.452 131.113 180.735 130.784 179.987 130.783H156.135Z" fill="#3F3D56"/>
</svg>
