<svg width="235" height="204" viewBox="0 0 235 204" fill="none" xmlns="http://www.w3.org/2000/svg">
<g clip-path="url(#clip0_27:190)">
<path d="M159.875 116.459L161.89 115.957C162.083 115.908 162.275 115.849 162.468 115.798C159.279 112.944 156.858 108.611 155.603 103.511C154.347 98.4112 154.333 92.8474 155.562 87.7339C156.79 82.6205 159.189 78.2615 162.363 75.3732C165.538 72.485 169.3 71.2391 173.03 71.8405L170.389 80.9003L176.647 73.0239C176.661 73.0291 176.675 73.036 176.689 73.0445C178.738 74.0848 180.625 75.6968 182.242 77.7884C183.859 79.88 185.174 82.4102 186.113 85.2346C187.051 88.059 187.595 91.1222 187.712 94.2494C187.829 97.3765 187.518 100.506 186.797 103.46C186.692 103.89 186.567 104.3 186.448 104.715C188.214 103.435 189.909 101.946 191.291 100.039C194.089 96.1739 195.622 90.8407 197.335 84.2701C200.728 71.2493 203.996 58.0401 207.133 44.8021C203.673 42.1029 200.994 37.7138 199.577 32.423C198.16 27.1322 198.098 21.2865 199.402 15.9359C199.571 15.2475 199.765 14.5846 199.972 13.9336C200.023 13.7707 200.075 13.6088 200.129 13.4482C200.339 12.8241 200.56 12.2125 200.803 11.6257C200.843 11.5294 200.888 11.4394 200.928 11.3442C201.14 10.8494 201.363 10.3692 201.598 9.90366C201.685 9.72888 201.772 9.55457 201.862 9.38393C202.128 8.88266 202.404 8.3949 202.694 7.92925C202.791 7.77344 202.894 7.62786 202.994 7.47608C203.217 7.13674 203.446 6.80763 203.681 6.48877C203.805 6.32091 203.928 6.15183 204.055 5.98992C204.088 5.94838 204.119 5.90303 204.152 5.86184C204.153 5.86487 204.154 5.86814 204.156 5.87114C207.07 2.21065 210.781 0.137687 214.645 0.0125536C218.509 -0.11258 222.282 1.71802 225.307 5.18619L221.87 16.976L228.056 9.19321C230.221 13.1695 231.448 18.039 231.558 23.0914C231.668 28.1437 230.655 33.1146 228.668 37.2788C228.673 37.2817 228.679 37.2839 228.685 37.2868C228.617 37.4299 228.541 37.5609 228.471 37.7014C228.341 37.9652 228.207 38.2243 228.07 38.4787C227.895 38.805 227.712 39.1203 227.526 39.4313C227.385 39.666 227.246 39.9028 227.1 40.1286C226.886 40.4589 226.661 40.7717 226.436 41.0827C226.304 41.2642 226.178 41.4548 226.042 41.6295C225.686 42.0875 225.318 42.5219 224.938 42.933C224.805 43.077 224.664 43.204 224.528 43.3419C224.261 43.6125 223.993 43.8792 223.716 44.1263C223.544 44.2795 223.367 44.4195 223.192 44.5635C222.938 44.7722 222.682 44.9743 222.42 45.1632C222.235 45.297 222.049 45.4241 221.86 45.5479C221.592 45.7242 221.32 45.8876 221.046 46.0432C220.861 46.1475 220.678 46.2531 220.491 46.348C220.183 46.5044 219.871 46.6403 219.556 46.7704C219.397 46.8362 219.241 46.9114 219.081 46.9703C218.609 47.1437 218.132 47.2914 217.65 47.4045C217.559 47.4259 217.467 47.4339 217.375 47.453C216.975 47.5369 216.573 47.6047 216.168 47.646C215.994 47.6637 215.818 47.6663 215.643 47.6761C215.316 47.6945 214.988 47.7038 214.658 47.6937C214.466 47.6878 214.274 47.6734 214.081 47.6578C213.76 47.6316 213.438 47.5913 213.117 47.5368C212.926 47.5051 212.737 47.4736 212.546 47.432C212.202 47.3566 211.858 47.2581 211.513 47.1501C211.491 47.143 211.468 47.1388 211.445 47.1315C210.121 52.7164 208.773 58.2894 207.4 63.8505C209.074 61.6795 211.039 60.0248 213.173 58.9879C215.308 57.9509 217.566 57.5536 219.811 57.8203C222.056 58.0871 224.239 59.0122 226.227 60.539C228.214 62.0657 229.965 64.1619 231.37 66.6989L225.651 75.8166L233.394 71.3605C235.275 77.0462 235.513 83.5758 234.056 89.5145C233.551 91.6013 232.844 93.5744 231.955 95.375C230.042 99.2761 227.36 102.258 224.256 103.935C221.153 105.612 217.772 105.906 214.551 104.779C211.33 103.651 208.419 101.155 206.195 97.6132C203.97 94.0716 202.535 89.6481 202.076 84.9166C201.931 85.4769 201.79 86.0443 201.644 86.604C200.133 92.4007 198.252 99.6147 194.475 104.83C191.915 108.366 188.765 110.608 185.743 112.505C183.775 113.739 181.781 114.881 179.761 115.929C177.515 117.892 174.978 119.058 172.358 119.33C169.17 120.607 165.942 121.672 162.684 122.495L160.652 123C158.827 123.451 156.955 123.915 155.097 124.45C155.364 124.564 155.632 124.673 155.898 124.808C159.209 126.488 162.063 129.642 164.049 133.813C166.035 137.985 167.049 142.959 166.945 148.016L154.209 153.652L165.733 156.29C164.679 160.025 162.985 163.314 160.81 165.849C158.635 168.385 156.05 170.084 153.296 170.789C150.542 171.493 147.708 171.18 145.061 169.878C142.414 168.577 140.038 166.329 138.157 163.345C138.274 163.91 138.391 164.474 138.509 165.037C138.743 166.157 138.975 167.27 139.198 168.372C142.231 183.394 140.926 195.21 135.523 201.643L132.591 196.527C137.849 190.265 136.218 177.361 134.778 170.226C134.559 169.143 134.331 168.05 134.101 166.95C132.126 157.491 129.887 146.769 132.787 136.917C137.157 122.067 149.754 118.958 159.875 116.459Z" fill="#F2F2F2"/>
<path d="M156.142 203.569H66.9064C63.9801 203.569 61.1737 201.893 59.1045 198.91C57.0353 195.927 55.8728 191.882 55.8728 187.663V128.727C55.8728 127.871 55.9938 127.024 56.2283 126.238C56.4628 125.452 56.8059 124.743 57.2368 124.154L104.523 59.5381C106.414 56.9547 108.919 55.5147 111.524 55.5147C114.129 55.5147 116.635 56.9547 118.526 59.5381L163.611 121.146C164.737 122.685 165.634 124.538 166.247 126.594C166.86 128.649 167.176 130.862 167.176 133.1V187.663C167.176 189.752 166.89 191.82 166.336 193.75C165.781 195.68 164.969 197.433 163.944 198.91C162.92 200.387 161.703 201.559 160.365 202.358C159.026 203.157 157.591 203.569 156.142 203.569V203.569Z" fill="#3F3D56"/>
<path opacity="0.1" d="M55.8728 129.695H166.248V193.964C166.248 196.512 165.546 198.955 164.297 200.756C163.047 202.557 161.353 203.569 159.586 203.569H62.5353C60.7683 203.569 59.0737 202.557 57.8242 200.756C56.5747 198.955 55.8728 196.512 55.8728 193.964V129.695V129.695Z" fill="black"/>
<path d="M146.38 79.0525H76.4363C73.0834 79.0525 70.3654 82.9708 70.3654 87.8041V188.633C70.3654 193.467 73.0834 197.385 76.4363 197.385H146.38C149.733 197.385 152.451 193.467 152.451 188.633V87.8041C152.451 82.9708 149.733 79.0525 146.38 79.0525Z" fill="#FED5D4"/>
<path opacity="0.1" d="M152.451 132.352V197.385H70.3654V132.352L111.408 160.949L152.451 132.352Z" fill="black"/>
<path d="M111.408 164.626L58.8191 127.984C58.4938 127.758 58.134 127.654 57.7732 127.682C57.4125 127.711 57.0627 127.871 56.7566 128.148C56.4506 128.425 56.1983 128.809 56.0234 129.265C55.8486 129.721 55.7568 130.233 55.7568 130.754V193.797C55.7568 195.059 55.9292 196.307 56.264 197.473C56.5988 198.638 57.0896 199.697 57.7082 200.589C58.3269 201.48 59.0614 202.188 59.8697 202.671C60.678 203.153 61.5444 203.402 62.4193 203.402H160.397C161.272 203.402 162.139 203.153 162.947 202.671C163.755 202.188 164.49 201.48 165.108 200.589C165.727 199.697 166.218 198.638 166.553 197.473C166.888 196.307 167.06 195.059 167.06 193.797V131.834C167.06 131.198 166.948 130.573 166.735 130.017C166.521 129.461 166.213 128.992 165.84 128.654C165.466 128.316 165.04 128.121 164.599 128.086C164.159 128.051 163.72 128.178 163.323 128.454L111.408 164.626Z" fill="#3F3D56"/>
<path d="M100.394 89.9164H77.4377V94.5962H100.394V89.9164Z" fill="#F2F2F2"/>
<path d="M143.756 106.964H75.5826V109.638H143.756V106.964Z" fill="#F2F2F2"/>
<path d="M143.756 115.99H75.5826V118.664H143.756V115.99Z" fill="#F2F2F2"/>
<path d="M143.756 125.015H75.5826V127.689H143.756V125.015Z" fill="#F2F2F2"/>
<path d="M14.1342 203.402H205.204" stroke="#3F3D56" stroke-miterlimit="10"/>
<path d="M0 162.24C0 181.949 8.57696 197.897 19.1764 197.897Z" fill="#46455B"/>
<path d="M19.1764 197.897C19.1764 177.967 28.7478 161.839 40.5762 161.839Z" fill="#FED5D4"/>
<path d="M6.948 164.027C6.948 182.748 12.4174 197.897 19.1765 197.897Z" fill="#FED5D4"/>
<path d="M19.1764 197.897C19.1764 172.43 30.2394 151.823 43.9112 151.823Z" fill="#46455B"/>
<path d="M15.1422 198.148C15.1422 198.148 17.8617 198.027 18.6813 197.186C19.5009 196.345 22.8647 195.34 23.068 196.69C23.2713 198.039 27.155 203.4 24.0846 203.436C21.0143 203.472 16.9505 202.747 16.1325 202.028C15.3145 201.31 15.1422 198.148 15.1422 198.148Z" fill="#A8A8A8"/>
<path opacity="0.2" d="M24.1394 202.966C21.0691 203.002 17.0053 202.277 16.1873 201.559C15.5643 201.012 15.3161 199.049 15.233 198.143C15.1755 198.147 15.1422 198.148 15.1422 198.148C15.1422 198.148 15.3145 201.31 16.1325 202.028C16.9505 202.747 21.0143 203.472 24.0846 203.436C24.9709 203.426 25.277 202.971 25.2602 202.298C25.1371 202.705 24.7991 202.959 24.1394 202.966Z" fill="black"/>
<path d="M166.888 54.4097C166.749 56.1995 165.802 57.6413 165.451 59.37C164.923 61.9718 165.836 64.7637 167.085 66.79C168.093 68.4078 169.314 69.7211 170.676 70.6538C172.039 71.5865 173.517 72.12 175.023 72.2235C175.466 72.2796 175.912 72.2095 176.336 72.0173C176.714 71.7978 177.055 71.4621 177.334 71.0336C178.275 69.6718 178.78 67.7849 178.981 65.885C179.183 63.9851 179.104 62.0495 179.026 60.131C179.026 59.7344 178.976 59.341 178.878 58.9704C178.75 58.6173 178.574 58.305 178.36 58.052C177.683 57.1563 176.937 56.375 176.136 55.7233C175.775 55.4897 175.456 55.1378 175.205 54.6955C175.053 54.3166 174.955 53.8984 174.916 53.4649L174.671 51.6602C174.627 51.1402 174.504 50.6405 174.31 50.1973C173.876 49.3534 173.046 49.2385 172.318 49.1973L169.65 49.0465C168.82 48.9995 167.727 48.6565 166.916 48.8914C166.16 49.1108 166.411 50.1157 166.549 51.0308C166.748 52.1356 166.862 53.2688 166.888 54.4097V54.4097Z" fill="#A0616A"/>
<path opacity="0.1" d="M166.888 54.4097C166.749 56.1995 165.802 57.6413 165.451 59.37C164.923 61.9718 165.836 64.7637 167.085 66.79C168.093 68.4078 169.314 69.7211 170.676 70.6538C172.039 71.5865 173.517 72.12 175.023 72.2235C175.466 72.2796 175.912 72.2095 176.336 72.0173C176.714 71.7978 177.055 71.4621 177.334 71.0336C178.275 69.6718 178.78 67.7849 178.981 65.885C179.183 63.9851 179.104 62.0495 179.026 60.131C179.026 59.7344 178.976 59.341 178.878 58.9704C178.75 58.6173 178.574 58.305 178.36 58.052C177.683 57.1563 176.937 56.375 176.136 55.7233C175.775 55.4897 175.456 55.1378 175.205 54.6955C175.053 54.3166 174.955 53.8984 174.916 53.4649L174.671 51.6602C174.627 51.1402 174.504 50.6405 174.31 50.1973C173.876 49.3534 173.046 49.2385 172.318 49.1973L169.65 49.0465C168.82 48.9995 167.727 48.6565 166.916 48.8914C166.16 49.1108 166.411 50.1157 166.549 51.0308C166.748 52.1356 166.862 53.2688 166.888 54.4097V54.4097Z" fill="black"/>
<path d="M183.859 134.973C183.481 140.947 183.103 146.92 182.725 152.893C182.429 157.593 182.128 162.312 181.547 166.952C181.347 168.55 181.112 170.141 180.833 171.718C180.058 176.096 178.934 180.375 178.571 184.863C178.56 184.992 178.55 185.125 178.541 185.257C178.5 186.249 178.37 187.23 178.153 188.174C177.972 188.859 177.693 189.483 177.497 190.16C177.105 191.514 177.054 193.011 177.006 194.478C175.63 193.362 174.123 192.62 172.56 192.287C171.806 192.125 170.966 192.01 170.453 191.198C169.884 190.301 169.947 188.928 170.042 187.722C170.342 183.98 170.641 180.239 170.94 176.5C171.037 174.892 171.227 173.298 171.507 171.734C171.61 171.214 171.734 170.702 171.86 170.19C172.033 169.486 172.209 168.782 172.341 168.058C172.531 166.888 172.663 165.701 172.738 164.505C173.045 160.741 173.415 156.985 173.74 153.223L173.757 153.025C174.244 147.323 174.614 141.594 174.507 135.851C174.492 135 174.467 134.15 174.429 133.297C174.376 132.061 174.297 131.407 175.007 130.633C175.792 129.78 176.825 129.183 177.722 128.624C178.205 128.322 183.523 125.6 183.647 126.197C183.897 127.471 184.028 128.787 184.037 130.11C184.04 131.735 183.981 133.358 183.859 134.973Z" fill="#605D82"/>
<path opacity="0.1" d="M181.547 166.952C181.347 168.55 181.112 170.141 180.833 171.718C180.058 176.096 178.934 180.375 178.571 184.863C178.56 184.992 178.55 185.125 178.541 185.257C176.17 180.375 174.173 175.124 171.86 170.19C172.033 169.486 172.209 168.782 172.341 168.058C172.53 166.888 172.663 165.701 172.738 164.505C173.045 160.741 173.415 156.985 173.74 153.223L173.757 153.025C173.893 153.823 174.087 154.599 174.335 155.339C175.889 159.89 179.581 162.191 181.387 166.547C181.442 166.682 181.496 166.817 181.547 166.952Z" fill="black"/>
<path d="M162.309 126.929C162.388 130.58 162.793 134.197 163.197 137.803L164.032 145.242C164.489 149.313 164.965 153.467 166.301 157.114C167.301 159.841 168.741 162.169 170.044 164.616C173.248 170.633 175.654 177.448 178.692 183.641C179.575 185.441 180.837 187.387 182.344 187.011C183.333 186.765 184.051 185.578 184.829 184.663C185.745 183.584 186.85 182.794 187.571 181.442C188.292 180.089 188.433 177.841 187.456 176.879C187.103 176.596 186.728 176.375 186.338 176.219C184.824 175.389 183.843 173.257 183.22 171.101C182.596 168.945 182.218 166.627 181.387 164.622C179.581 160.266 175.889 157.965 174.335 153.412C173.464 150.862 173.381 147.923 173.315 145.082L173.145 137.841C173.126 137.049 173.112 136.226 173.335 135.502C173.93 133.574 175.725 133.395 177.178 133.15C178.828 132.872 180.426 132.145 181.888 131.009C182.725 130.357 183.543 129.526 183.991 128.316C184.399 127.212 184.455 125.917 184.503 124.668L185.007 111.545C185.05 110.416 185.089 109.249 184.813 108.19C184.12 105.533 181.792 104.664 179.825 104.791C176.163 105.027 172.783 107.297 169.331 108.831C168.476 109.22 167.608 109.546 166.73 109.809C165.955 110.033 165.017 109.94 164.279 110.299C162.964 110.938 162.998 115.081 162.811 116.799C162.427 120.146 162.258 123.537 162.309 126.929V126.929Z" fill="#605D82"/>
<path d="M181.847 187.562C182.17 188.031 182.275 188.719 182.359 189.368C182.826 192.973 183.068 196.63 183.084 200.297C183.063 200.639 183.11 200.982 183.221 201.287C183.312 201.468 183.435 201.611 183.577 201.7C184.51 202.341 185.594 201.448 186.371 200.466C187.813 198.645 189.032 196.202 189.114 193.442C189.099 192.731 189.116 192.02 189.166 191.312C189.292 190.273 189.713 189.368 190.084 188.458C190.715 186.91 191.224 185.265 191.602 183.554C191.744 182.911 191.838 182.102 191.488 181.653C191.365 181.513 191.224 181.407 191.073 181.342L186.858 179.085C186.493 178.89 185.584 182.256 185.439 182.624C185.086 183.524 184.736 184.035 184.028 184.242C183.305 184.454 182.445 184.15 181.77 184.67C180.63 185.549 181.201 186.623 181.847 187.562Z" fill="#535070"/>
<path d="M175.343 189.639C175.264 189.414 175.155 189.215 175.022 189.052C174.827 188.874 174.605 188.765 174.375 188.735C173.572 188.539 172.621 188.41 172.067 189.269C171.548 190.076 171.637 191.389 171.203 192.294C171.065 192.58 170.879 192.816 170.76 193.119C170.612 193.582 170.546 194.09 170.566 194.599C170.543 196.002 170.521 197.407 170.588 198.806C170.645 199.979 170.782 201.207 171.29 202.126C172.107 203.601 173.579 203.813 174.886 203.908L175.945 203.986C176.237 204.037 176.532 203.998 176.813 203.871C176.986 203.756 177.142 203.591 177.27 203.387C177.399 203.183 177.498 202.944 177.561 202.684C178.112 200.71 177.239 198.583 176.702 196.601C176.084 194.322 176.195 191.793 175.343 189.639Z" fill="#535070"/>
<path d="M166.581 44.3245C166.568 44.1243 166.589 43.9226 166.641 43.7361C166.796 43.3409 167.201 43.4485 167.506 43.5595C168.734 44.0058 170.029 43.6018 171.293 43.7061C172.558 43.8103 173.982 44.7217 174.236 46.5105C175.154 45.5724 175.946 44.4004 176.571 43.0523C176.922 42.2952 177.228 41.428 177.18 40.52C177.111 39.2103 176.349 38.2308 175.643 37.4002L173.539 34.9243C173.263 34.5584 172.944 34.2661 172.597 34.0609C172.112 33.8216 171.582 33.9356 171.068 33.9361C169.537 33.9375 167.904 32.9327 166.542 33.9421C165.973 34.3637 165.545 35.0862 165.132 35.7907L163.254 38.995C163.113 39.1992 163.009 39.4516 162.954 39.7288C162.9 40.1199 163.04 40.5059 163.088 40.8983C163.177 41.6142 162.963 42.3781 163.128 43.0656C163.401 44.2068 164.362 44.3684 164.949 45.0227C165.169 45.2665 165.512 46.0929 165.773 46.0828C166.244 46.0646 166.569 44.8518 166.581 44.3245Z" fill="#3F3D56"/>
<path d="M169.768 53.7698C173.088 53.7698 175.781 49.8889 175.781 45.1016C175.781 40.3143 173.088 36.4334 169.768 36.4334C166.447 36.4334 163.754 40.3143 163.754 45.1016C163.754 49.8889 166.447 53.7698 169.768 53.7698Z" fill="#A0616A"/>
<path d="M171.176 64.0721C170.972 63.2297 170.587 62.5028 170.077 61.997C169.567 61.4912 168.959 61.2326 168.34 61.2589C168.163 61.3064 167.98 61.273 167.817 61.1635C167.725 61.0613 167.651 60.9284 167.602 60.7761C167.236 59.8283 166.942 58.8266 166.725 57.7882C166.629 57.3294 166.498 56.7885 166.176 56.6692C166.043 56.6441 165.907 56.6716 165.784 56.7489C165.661 56.8262 165.554 56.9504 165.476 57.1081C165.323 57.4256 165.156 57.7284 164.976 58.0145C164.22 58.9893 162.879 58.1008 162.077 58.9951C161.945 59.1412 161.837 59.3283 161.7 59.4612C161.562 59.5808 161.413 59.6726 161.258 59.7341C159.708 60.4635 158.188 61.3214 156.707 62.3035C157.241 66.9388 157.788 71.6549 159.04 75.9935C159.635 78.0582 160.31 80.0803 160.787 82.2081C161.844 86.9225 161.891 91.9668 161.903 96.9212C161.911 100.312 161.899 103.775 161.138 106.984C160.933 107.693 160.789 108.435 160.708 109.194C160.662 109.959 160.817 110.802 161.246 111.255C161.495 111.49 161.78 111.634 162.077 111.675C163.395 111.954 164.725 111.448 166.023 111.015C169.503 109.853 173.053 109.188 176.595 108.525L182.531 107.414C182.957 107.372 183.373 107.217 183.759 106.956C184.846 106.099 184.949 103.744 184.274 102.247C183.951 101.529 183.495 100.94 183.223 100.179C182.951 99.418 182.928 98.3539 183.396 97.8268C184.347 96.7547 184.063 94.7656 184.109 93.0259C184.236 88.1614 184.219 83.295 184.057 78.4267C184.01 77.419 183.999 76.4083 184.024 75.3989C184.129 73.6884 184.349 71.9965 184.679 70.3464L186.482 60.1083C186.011 59.035 185.109 58.3539 184.254 58.0447C183.4 57.7355 182.509 57.6446 181.668 57.2686C179.943 56.4983 178.408 54.5436 176.607 54.7258C176.471 54.7293 176.337 54.7764 176.215 54.8638C175.809 55.1955 175.873 56.0392 175.847 56.7111C175.79 58.1976 175.032 59.4399 174.194 60.3109C173.356 61.182 172.4 61.8171 171.631 62.8105C171.494 62.9585 171.383 63.1487 171.304 63.367C171.225 63.5853 171.182 63.8262 171.176 64.0721V64.0721Z" fill="#3F3D56"/>
<path d="M147.35 73.7832C146.951 74.1562 146.528 74.4705 146.085 74.7214C145.652 74.9071 145.243 75.1934 144.874 75.569C144.704 75.7811 144.561 76.0352 144.452 76.3193C144.249 76.8397 144.146 77.4293 144.154 78.0265C144.163 78.6238 144.282 79.2068 144.5 79.7148C144.719 80.2227 145.027 80.637 145.394 80.9143C145.761 81.1916 146.173 81.3218 146.587 81.2913C147.137 81.2025 147.672 80.9727 148.166 80.6128L152.407 77.9635C153.125 77.5151 153.9 76.9896 154.239 75.9734C154.279 75.8786 154.293 75.7666 154.281 75.6575C154.246 75.5423 154.184 75.4485 154.106 75.3935C153.15 74.498 152.313 73.3608 151.637 72.0367C151.463 71.6961 151.25 70.892 151.004 70.6878C150.106 69.9425 148.069 73.111 147.35 73.7832Z" fill="#A0616A"/>
<path d="M192.689 71.6092L194.253 74.1841C194.589 74.7369 194.925 75.2903 195.231 75.8778C195.982 77.3706 196.585 79.0076 197.021 80.7412C197.361 82.0269 197.643 83.3964 197.525 84.7616C197.446 85.4614 197.315 86.147 197.134 86.8062C196.847 88.074 196.492 89.3075 196.071 90.4951C195.717 91.3974 195.318 92.2607 194.876 93.0779C193.665 95.391 192.34 97.5752 190.912 99.6137C190.377 100.377 190.153 101.61 189.92 102.641C189.491 104.543 188.47 106.024 187.482 107.429C187.165 107.912 186.814 108.347 186.435 108.728C185.868 109.254 185.205 109.527 184.53 109.51C184.235 109.513 183.942 109.426 183.672 109.254C182.996 108.791 182.653 107.665 182.582 106.591C182.519 105.616 182.633 104.635 182.911 103.743C183.808 100.877 186.113 99.6357 187.741 97.5451C188.696 96.3192 189.426 94.7794 190.147 93.2562C190.636 92.3052 191.044 91.2731 191.363 90.1821C191.727 88.783 191.585 87.1268 191.903 85.7047C192.038 85.1036 192.276 84.5608 192.421 83.9646C192.565 83.3683 192.602 82.6605 192.349 82.1446C192.158 81.8167 191.915 81.5603 191.641 81.3974C190.601 80.6362 189.435 79.6566 189.236 77.9993C189.157 77.0802 189.323 76.1521 189.702 75.4039C190.079 74.6657 190.52 73.9996 191.014 73.4217C191.469 72.8417 192.234 72.1893 192.689 71.6092Z" fill="#A0616A"/>
<path d="M146.346 77.3775C146.07 76.5735 145.725 75.7532 145.168 75.3534C144.898 75.1844 144.607 75.0963 144.312 75.0945C144.018 75.0927 143.726 75.1773 143.455 75.3431C142.915 75.6788 142.409 76.1197 141.952 76.6534L140.604 78.0856C140.299 78.3746 140.028 78.7343 139.804 79.1503C139.591 79.655 139.45 80.215 139.387 80.7986C139.152 82.1294 139.081 83.5092 139.175 84.8756C139.389 87.0665 140.306 88.9793 141.314 90.647C141.944 91.6892 142.722 92.7409 143.681 92.7853C144.095 92.8045 144.555 92.5694 144.727 92.0266C144.787 91.8114 144.818 91.5822 144.82 91.3506C144.924 88.9068 144.318 86.5198 143.61 84.2938C143.385 83.7109 143.252 83.0634 143.22 82.3975C143.215 82.2855 143.235 82.1741 143.278 82.08C143.339 81.9884 143.42 81.9311 143.508 81.918C144.476 81.642 146.143 82.7259 146.822 81.1765C147.262 80.172 146.659 78.2884 146.346 77.3775Z" fill="#A0616A"/>
<path d="M166.266 41.5969C166.253 41.3967 166.273 41.195 166.326 41.0085C166.481 40.6133 166.885 40.7209 167.191 40.8319C168.419 41.2783 169.713 40.8742 170.978 40.9785C172.242 41.0828 173.667 41.9941 173.921 43.7829C174.839 42.8448 175.63 41.6729 176.256 40.3248C176.607 39.5676 176.913 38.7004 176.865 37.7924C176.796 36.4827 176.034 35.5033 175.328 34.6727L173.224 32.1967C172.948 31.8309 172.629 31.5386 172.282 31.3334C171.796 31.094 171.266 31.208 170.753 31.2085C169.221 31.2099 167.589 30.2052 166.226 31.2145C165.657 31.6361 165.229 32.3586 164.816 33.0631L162.939 36.2674C162.797 36.4717 162.694 36.7241 162.638 37.0012C162.585 37.3923 162.724 37.7783 162.773 38.1708C162.862 38.8866 162.648 39.6506 162.812 40.338C163.085 41.4793 164.046 41.6408 164.634 42.2951C164.853 42.5389 165.196 43.3653 165.457 43.3553C165.928 43.337 166.254 42.1242 166.266 41.5969Z" fill="#3F3D56"/>
<path d="M153.495 65.3518C153.252 65.5775 153.039 65.8635 152.865 66.1964C152.645 66.6769 152.6 67.2835 152.411 67.7908C152.005 68.8764 151.058 69.2626 150.466 70.1532C150.372 70.2757 150.307 70.4371 150.28 70.6153C150.277 70.857 150.333 71.0924 150.438 71.2804L153.29 77.7424C154.239 77.8629 155.15 77.0054 156.1 77.1193C156.454 77.1618 156.817 77.3383 157.157 77.1873C157.401 77.0316 157.629 76.8305 157.836 76.5889C158.403 76.0724 159.157 76.0123 159.633 75.3308C160.089 74.6769 160.147 73.6537 160.142 72.7263C160.149 71.9208 160.092 71.1169 159.972 70.3302C159.552 67.8499 158.236 65.9464 157.411 63.7493C157.01 62.6796 156.791 62.0534 155.941 62.7879C155.087 63.5262 154.299 64.504 153.495 65.3518Z" fill="#3F3D56"/>
<path d="M188.124 62.084C188.66 62.5856 189.143 63.1956 189.559 63.8952C189.993 64.7027 190.239 65.6908 190.656 66.5168C191.061 67.3174 191.611 67.9374 192.07 68.6747C192.766 69.7927 193.237 71.1567 193.7 72.5024C192.57 74.6275 191.337 76.6355 190.012 78.5117C189.864 78.7623 189.67 78.9465 189.452 79.0424C189.303 79.0651 189.153 79.0345 189.015 78.9533C188.877 78.8721 188.755 78.7428 188.66 78.5771C188.455 78.2665 188.309 77.8836 188.113 77.5611C187.649 76.872 187.032 76.4415 186.369 76.3457C185.713 76.2542 185.052 76.2411 184.394 76.3065C184.25 76.3297 184.104 76.2943 183.972 76.2043C183.875 76.1072 183.796 75.9763 183.742 75.8237C182.97 73.93 183.219 71.5524 183.491 69.3912L184.116 64.4321C184.206 63.485 184.381 62.5587 184.636 61.676C184.873 60.9467 185.402 59.71 186.053 59.9283C186.709 60.1484 187.572 61.5116 188.124 62.084Z" fill="#3F3D56"/>
<path d="M73.7276 94.646C78.9782 94.646 83.2347 88.4988 83.2347 80.9159C83.2347 73.333 78.9782 67.1859 73.7276 67.1859C68.4769 67.1859 64.2205 73.333 64.2205 80.9159C64.2205 88.4988 68.4769 94.646 73.7276 94.646Z" fill="white"/>
<path d="M73.7277 64.846C71.4804 64.846 69.2837 65.8066 67.4152 67.6064C65.5467 69.4062 64.0904 71.9643 63.2304 74.9572C62.3704 77.9501 62.1454 81.2435 62.5838 84.4207C63.0222 87.598 64.1044 90.5165 65.6934 92.8072C67.2824 95.0979 69.307 96.6579 71.511 97.2899C73.7151 97.9219 75.9996 97.5975 78.0758 96.3578C80.152 95.1181 81.9265 93.0187 83.175 90.3252C84.4235 87.6316 85.0899 84.4648 85.0899 81.2253C85.081 76.8851 83.8811 72.7264 81.7522 69.6574C79.6233 66.5884 76.7384 64.8587 73.7277 64.846V64.846ZM71.3951 89.9583L65.572 81.5639L67.2053 79.2094L71.4006 85.2571L80.2555 72.4923L81.8888 74.8468L71.3951 89.9583L71.3951 89.9583Z" fill="#57B894"/>
</g>
<defs>
<clipPath id="clip0_27:190">
<rect width="235" height="204" fill="white"/>
</clipPath>
</defs>
</svg>
